<mxfile host="app.diagrams.net" modified="2024-07-15T16:03:11.898Z" agent="Mozilla/5.0 (Windows NT 10.0; Win64; x64) AppleWebKit/537.36 (KHTML, like Gecko) Chrome/126.0.0.0 Safari/537.36" etag="O8JnKChma067EJyGteOZ" version="24.6.5" type="github">
  <diagram name="Pagina-1" id="C2TrevC_rkaqsCcJrRxx">
    <mxGraphModel dx="884" dy="420" grid="1" gridSize="10" guides="1" tooltips="1" connect="1" arrows="1" fold="1" page="1" pageScale="1" pageWidth="827" pageHeight="1169" math="0" shadow="0">
      <root>
        <mxCell id="0" />
        <mxCell id="1" parent="0" />
        <mxCell id="TMiehQ8rS3ajYmThUONe-1" value="&lt;font style=&quot;font-size: 10px;&quot;&gt;Hai rilevato movimenti sospetti sul tuo conto?&lt;/font&gt;" style="ellipse;whiteSpace=wrap;html=1;" parent="1" vertex="1">
          <mxGeometry x="360" y="40" width="130" height="80" as="geometry" />
        </mxCell>
        <mxCell id="TMiehQ8rS3ajYmThUONe-2" value="&lt;font style=&quot;font-size: 10px;&quot;&gt;Stai riscontrando problemi nell&#39;aprire i tuoi file personali?&lt;/font&gt;" style="ellipse;whiteSpace=wrap;html=1;" parent="1" vertex="1">
          <mxGeometry x="540" y="100" width="140" height="70" as="geometry" />
        </mxCell>
        <mxCell id="TMiehQ8rS3ajYmThUONe-3" value="&lt;font style=&quot;font-size: 8px;&quot;&gt;Hai inserito i dati del tuo conto su qualche piattaforma o sito web di recente?&lt;/font&gt;" style="ellipse;whiteSpace=wrap;html=1;" parent="1" vertex="1">
          <mxGeometry x="170" y="90" width="140" height="80" as="geometry" />
        </mxCell>
        <mxCell id="TMiehQ8rS3ajYmThUONe-4" value="" style="endArrow=classic;html=1;rounded=0;exitX=0.016;exitY=0.625;exitDx=0;exitDy=0;exitPerimeter=0;entryX=0.929;entryY=0.25;entryDx=0;entryDy=0;entryPerimeter=0;" parent="1" source="TMiehQ8rS3ajYmThUONe-1" target="TMiehQ8rS3ajYmThUONe-3" edge="1">
          <mxGeometry width="50" height="50" relative="1" as="geometry">
            <mxPoint x="330" y="200" as="sourcePoint" />
            <mxPoint x="300" y="130" as="targetPoint" />
          </mxGeometry>
        </mxCell>
        <mxCell id="TMiehQ8rS3ajYmThUONe-5" value="" style="endArrow=classic;html=1;rounded=0;exitX=0.973;exitY=0.633;exitDx=0;exitDy=0;exitPerimeter=0;" parent="1" source="TMiehQ8rS3ajYmThUONe-1" target="TMiehQ8rS3ajYmThUONe-2" edge="1">
          <mxGeometry width="50" height="50" relative="1" as="geometry">
            <mxPoint x="483" y="130" as="sourcePoint" />
            <mxPoint x="420" y="152" as="targetPoint" />
          </mxGeometry>
        </mxCell>
        <mxCell id="TMiehQ8rS3ajYmThUONe-6" value="&lt;font style=&quot;font-size: 10px;&quot;&gt;Si&lt;/font&gt;" style="text;html=1;align=center;verticalAlign=middle;resizable=0;points=[];autosize=1;strokeColor=none;fillColor=none;" parent="1" vertex="1">
          <mxGeometry x="320" y="75" width="30" height="30" as="geometry" />
        </mxCell>
        <mxCell id="TMiehQ8rS3ajYmThUONe-7" value="&lt;span style=&quot;color: rgb(0, 0, 0); font-family: Helvetica; font-size: 10px; font-style: normal; font-variant-ligatures: normal; font-variant-caps: normal; font-weight: 400; letter-spacing: normal; orphans: 2; text-align: center; text-indent: 0px; text-transform: none; widows: 2; word-spacing: 0px; -webkit-text-stroke-width: 0px; white-space: nowrap; background-color: rgb(251, 251, 251); text-decoration-thickness: initial; text-decoration-style: initial; text-decoration-color: initial; display: inline !important; float: none;&quot;&gt;No&lt;/span&gt;" style="text;whiteSpace=wrap;html=1;" parent="1" vertex="1">
          <mxGeometry x="500" y="75" width="20" height="20" as="geometry" />
        </mxCell>
        <mxCell id="TMiehQ8rS3ajYmThUONe-8" value="&lt;font style=&quot;font-size: 10px;&quot;&gt;Si&lt;/font&gt;" style="text;html=1;align=center;verticalAlign=middle;resizable=0;points=[];autosize=1;strokeColor=none;fillColor=none;" parent="1" vertex="1">
          <mxGeometry x="120" y="120" width="30" height="30" as="geometry" />
        </mxCell>
        <mxCell id="TMiehQ8rS3ajYmThUONe-9" value="" style="endArrow=classic;html=1;rounded=0;exitX=0.195;exitY=0.9;exitDx=0;exitDy=0;exitPerimeter=0;" parent="1" source="TMiehQ8rS3ajYmThUONe-3" edge="1">
          <mxGeometry width="50" height="50" relative="1" as="geometry">
            <mxPoint x="202" y="160" as="sourcePoint" />
            <mxPoint x="160" y="200" as="targetPoint" />
          </mxGeometry>
        </mxCell>
        <mxCell id="_5rvxyNiYHPKeLXy1PwG-1" value="&lt;font style=&quot;font-size: 10px;&quot;&gt;Si&lt;/font&gt;" style="text;html=1;align=center;verticalAlign=middle;resizable=0;points=[];autosize=1;strokeColor=none;fillColor=none;" vertex="1" parent="1">
          <mxGeometry x="520" y="150" width="30" height="30" as="geometry" />
        </mxCell>
        <mxCell id="_5rvxyNiYHPKeLXy1PwG-2" value="" style="endArrow=classic;html=1;rounded=0;exitX=0.195;exitY=0.9;exitDx=0;exitDy=0;exitPerimeter=0;" edge="1" parent="1">
          <mxGeometry width="50" height="50" relative="1" as="geometry">
            <mxPoint x="552.5" y="155" as="sourcePoint" />
            <mxPoint x="525.5" y="193" as="targetPoint" />
          </mxGeometry>
        </mxCell>
        <mxCell id="_5rvxyNiYHPKeLXy1PwG-3" value="&lt;span style=&quot;color: rgb(0, 0, 0); font-family: Helvetica; font-size: 10px; font-style: normal; font-variant-ligatures: normal; font-variant-caps: normal; font-weight: 400; letter-spacing: normal; orphans: 2; text-align: center; text-indent: 0px; text-transform: none; widows: 2; word-spacing: 0px; -webkit-text-stroke-width: 0px; white-space: nowrap; background-color: rgb(251, 251, 251); text-decoration-thickness: initial; text-decoration-style: initial; text-decoration-color: initial; display: inline !important; float: none;&quot;&gt;No&lt;/span&gt;" style="text;whiteSpace=wrap;html=1;" vertex="1" parent="1">
          <mxGeometry x="310" y="150" width="20" height="20" as="geometry" />
        </mxCell>
        <mxCell id="_5rvxyNiYHPKeLXy1PwG-5" value="" style="endArrow=classic;html=1;rounded=0;exitX=0.195;exitY=0.9;exitDx=0;exitDy=0;exitPerimeter=0;" edge="1" parent="1">
          <mxGeometry width="50" height="50" relative="1" as="geometry">
            <mxPoint x="287" y="160" as="sourcePoint" />
            <mxPoint x="310" y="200" as="targetPoint" />
          </mxGeometry>
        </mxCell>
      </root>
    </mxGraphModel>
  </diagram>
</mxfile>
